<svg xmlns="http://www.w3.org/2000/svg" viewBox="0 0 24 24" fill="none" stroke="currentColor" stroke-width="1.7" stroke-linecap="round" stroke-linejoin="round">
  <path d="M9.8 3.1h4.4l.55 2.35c.7.2 1.35.47 1.95.81l2.2-.94 2.2 3.82-1.78 1.55a8 8 0 0 1 0 2.26l1.78 1.55-2.2 3.82-2.2-.94c-.6.34-1.25.61-1.95.81L14.2 20.5H9.8l-.55-2.35a8 8 0 0 1-1.95-.81l-2.2.94-2.2-3.82 1.78-1.55a8 8 0 0 1 0-2.26L2.9 9.1l2.2-3.82 2.2.94c.6-.34 1.25-.61 1.95-.81L9.8 3.1Z"/>
  <circle cx="12" cy="12" r="3.1"/>
</svg>
